<svg width="200" height="229" viewBox="0 0 200 229" fill="none" xmlns="http://www.w3.org/2000/svg">
<path d="M99.9978 228.045C114.024 228.045 125.68 217.858 128.1 204.429H71.8955C74.3152 217.858 85.9719 228.045 99.9978 228.045Z" fill="#FF7F50"/>
<path d="M193.698 156.996C183.765 146.987 171.429 142.178 171.429 93.5427C171.429 57.8287 145.611 28.196 111.758 22.5456H109.909C112.067 20.1516 113.382 16.9726 113.382 13.4837C113.382 6.03676 107.391 0 100 0C92.6094 0 86.6183 6.03676 86.6183 13.4837C86.6183 16.9722 87.9335 20.1516 90.0911 22.5456H88.2424C54.3888 28.196 28.5714 57.8287 28.5714 93.5427C28.5714 142.178 16.2308 146.987 6.29772 156.996C-7.16166 170.558 2.37718 193.855 21.45 193.855H178.546C197.581 193.855 207.185 170.585 193.698 156.996Z" fill="#FF7F50"/>
</svg>
