<svg width="200" height="194" viewBox="0 0 200 194" fill="none" xmlns="http://www.w3.org/2000/svg">
<path d="M197.983 91.6181L178.217 70.9304L182.2 42.4252C182.742 38.5484 180.15 34.9358 176.341 34.2593L148.342 29.288L135.02 3.85739C133.208 0.397672 129.011 -0.979441 125.54 0.73832L99.9996 13.383L74.4606 0.739289C70.9859 -0.980408 66.7934 0.399607 64.9805 3.85836L51.6577 29.289L23.6589 34.2603C19.8506 34.9358 17.2579 38.5494 17.7998 42.4262L21.782 70.9314L2.01619 91.6181C-0.672065 94.4313 -0.672065 98.8975 2.01619 101.712L21.7811 122.4L17.7989 150.906C17.2579 154.782 19.8497 158.395 23.657 159.072L51.6568 164.047L64.9805 189.474C66.7925 192.933 70.9859 194.313 74.4597 192.593L99.9986 179.953L125.54 192.593C126.552 193.095 127.625 193.332 128.683 193.332C131.254 193.332 133.734 191.925 135.019 189.474L148.342 164.047L176.342 159.072C180.149 158.396 182.742 154.782 182.2 150.906L178.217 122.4L197.984 101.712C200.672 98.8975 200.672 94.4323 197.983 91.6181ZM165.479 114.858C163.943 116.466 163.225 118.704 163.534 120.922L167.037 145.988L142.415 150.363C140.238 150.75 138.359 152.133 137.323 154.11L125.606 176.47L103.147 165.354C102.154 164.862 101.077 164.617 99.9986 164.617C98.9216 164.617 97.8446 164.862 96.8517 165.354L74.3937 176.47L62.6774 154.11C61.6415 152.133 59.7617 150.75 57.5847 150.363L32.9632 145.988L36.4647 120.922C36.7744 118.705 36.0566 116.467 34.519 114.859L17.1394 96.6659L34.519 78.475C36.0557 76.8666 36.7744 74.6282 36.4647 72.412L32.9632 47.3463L57.5838 42.9749C59.7617 42.5888 61.6415 41.2049 62.6783 39.2278L74.3937 16.865L96.8507 27.9835C98.8365 28.9677 101.159 28.9677 103.147 27.9835L125.605 16.865L137.322 39.2278C138.358 41.2049 140.237 42.5888 142.415 42.9749L167.036 47.3463L163.533 72.412C163.224 74.6292 163.942 76.8666 165.479 78.476L182.859 96.6659L165.479 114.858Z" fill="#FF7F50"/>
<path d="M134.621 61.608C132.383 59.3406 128.75 59.3396 126.513 61.608L65.3817 123.512C63.1426 125.78 63.1426 129.456 65.3817 131.724C66.5018 132.858 67.9687 133.424 69.4366 133.424C70.9035 133.424 72.3714 132.857 73.4914 131.724L134.622 69.8194C136.86 67.5519 136.86 63.8755 134.621 61.608Z" fill="#FF7F50"/>
<path d="M77.2349 91.1874C86.8048 91.1874 94.5896 83.3041 94.5896 73.6149C94.5896 63.9219 86.8048 56.0366 77.2349 56.0366C67.664 56.0366 59.8783 63.9219 59.8783 73.6149C59.8783 83.305 67.665 91.1874 77.2349 91.1874ZM77.2349 67.6497C80.4813 67.6497 83.1217 70.3255 83.1217 73.6149C83.1217 76.9014 80.4803 79.5743 77.2349 79.5743C73.9876 79.5743 71.3461 76.9004 71.3461 73.6149C71.3461 70.3255 73.9876 67.6497 77.2349 67.6497Z" fill="#FF7F50"/>
<path d="M122.764 102.144C113.195 102.144 105.411 110.028 105.411 119.717C105.411 129.41 113.196 137.295 122.764 137.295C132.336 137.295 140.122 129.41 140.122 119.717C140.122 110.028 132.336 102.144 122.764 102.144ZM122.764 125.683C119.519 125.683 116.879 123.007 116.879 119.718C116.879 116.432 119.519 113.758 122.764 113.758C126.011 113.758 128.654 116.432 128.654 119.718C128.654 123.006 126.012 125.683 122.764 125.683Z" fill="#FF7F50"/>
</svg>
