<svg width="200" height="200" viewBox="0 0 200 200" fill="none" xmlns="http://www.w3.org/2000/svg">
<mask id="path-1-inside-1_1543_6120" fill="white">
<path d="M163.999 10.0009C163.999 7.34875 162.946 4.80521 161.07 2.92988C159.195 1.05454 156.652 0.000976563 153.999 0.000976562C151.347 0.000976563 148.804 1.05454 146.928 2.92988C145.053 4.80521 144 7.34875 144 10.0009H163.999ZM144 46.0005C144 48.6526 145.053 51.1962 146.928 53.0715C148.804 54.9468 151.347 56.0004 153.999 56.0004C156.652 56.0004 159.195 54.9468 161.07 53.0715C162.946 51.1962 163.999 48.6526 163.999 46.0005H144ZM56.0004 10.0009C56.0004 7.34875 54.9469 4.80521 53.0715 2.92988C51.1962 1.05454 48.6527 0.000976563 46.0005 0.000976562C43.3484 0.000976563 40.8049 1.05454 38.9295 2.92988C37.0542 4.80521 36.0006 7.34875 36.0006 10.0009H56.0004ZM36.0006 46.0005C36.0006 48.6526 37.0542 51.1962 38.9295 53.0715C40.8049 54.9468 43.3484 56.0004 46.0005 56.0004C48.6527 56.0004 51.1962 54.9468 53.0715 53.0715C54.9469 51.1962 56.0004 48.6526 56.0004 46.0005H36.0006ZM179.999 68.0003V149.999H199.999V68.0003H179.999ZM149.999 179.999H100H50.0005V199.999H149.999V179.999ZM20.0008 149.999V68.0003H0.00101788V149.999H20.0008ZM50.0105 38.0006H149.979V18.0008H50.0305V38.0006H50.0105ZM191.209 32.5015H10.344V58.2451H191.209V32.5015ZM144 10.0009V46.0005H163.999V10.0009H144ZM36.0006 10.0009V46.0005H56.0004V10.0009H36.0006ZM50.0005 179.999C40.2906 179.999 34.0107 179.979 29.3907 179.359C25.0508 178.769 23.6908 177.829 22.9308 177.069L8.79093 191.209C13.8909 196.309 20.1708 198.299 26.7207 199.179C33.0007 200.019 40.8506 199.999 50.0005 199.999V179.999ZM0.00101788 149.999C0.00101788 159.149 -0.0189817 167.009 0.82101 173.279C1.701 179.829 3.69098 186.119 8.79093 191.209L22.9308 177.069C22.1708 176.309 21.2308 174.949 20.6408 170.609C20.0208 165.999 20.0008 159.709 20.0008 149.999H0.00101788ZM179.999 149.999C179.999 159.709 179.979 165.989 179.359 170.609C178.769 174.949 177.829 176.309 177.069 177.069L191.209 191.209C196.309 186.109 198.299 179.829 199.179 173.279C200.019 166.999 199.999 159.149 199.999 149.999H179.999ZM149.999 199.999C159.149 199.999 167.009 200.019 173.279 199.179C179.829 198.299 186.119 196.309 191.209 191.209L177.069 177.069C176.309 177.829 174.949 178.769 170.609 179.359C165.989 179.979 159.709 179.999 149.999 179.999V199.999ZM199.999 68.0003C199.999 58.8504 200.019 50.9904 199.179 44.7205C198.299 38.1706 196.309 31.8806 191.209 26.7907L177.069 40.9306C177.829 41.6905 178.769 43.0506 179.359 47.3905C179.979 52.0104 179.999 58.2904 179.999 68.0003H199.999ZM149.989 38.0006C159.699 38.0006 165.989 38.0206 170.609 38.6406C174.949 39.2306 176.309 40.1706 177.069 40.9306L191.209 26.7907C186.109 21.6908 179.829 19.7008 173.269 18.8208C166.999 17.9808 159.139 18.0008 149.999 18.0008L149.989 38.0006ZM20.0008 68.0003C20.0008 58.2904 20.0208 52.0104 20.6408 47.3905C21.2308 43.0506 22.1708 41.6905 22.9308 40.9306L8.79093 26.7907C3.69098 31.8906 1.701 38.1706 0.82101 44.7205C-0.0189817 51.0004 0.00101788 58.8504 0.00101788 68.0003H20.0008ZM50.0105 18.0008C40.8606 18.0008 33.0007 17.9808 26.7307 18.8208C20.1708 19.7008 13.8809 21.6908 8.79093 26.7907L22.9308 40.9306C23.6908 40.1706 25.0508 39.2306 29.3907 38.6406C34.0207 38.0206 40.2906 38.0006 50.0105 38.0006V18.0008Z"/>
<path d="M101.266 123.007C94.9363 129.547 84.5302 129.8 77.8903 123.575L69.8397 116.028C66.1564 112.575 60.3975 112.668 56.8274 116.238C53.0616 120.004 53.1951 126.149 57.121 129.748L78.0946 148.974C84.6723 155.003 94.832 154.782 101.142 148.473L146.492 103.122C150.138 99.476 150.138 93.5645 146.492 89.9184C142.804 86.2299 136.809 86.279 133.181 90.0275L101.266 123.007Z"/>
</mask>
<path d="M163.999 10.0009C163.999 7.34875 162.946 4.80521 161.07 2.92988C159.195 1.05454 156.652 0.000976563 153.999 0.000976562C151.347 0.000976563 148.804 1.05454 146.928 2.92988C145.053 4.80521 144 7.34875 144 10.0009H163.999ZM144 46.0005C144 48.6526 145.053 51.1962 146.928 53.0715C148.804 54.9468 151.347 56.0004 153.999 56.0004C156.652 56.0004 159.195 54.9468 161.07 53.0715C162.946 51.1962 163.999 48.6526 163.999 46.0005H144ZM56.0004 10.0009C56.0004 7.34875 54.9469 4.80521 53.0715 2.92988C51.1962 1.05454 48.6527 0.000976563 46.0005 0.000976562C43.3484 0.000976563 40.8049 1.05454 38.9295 2.92988C37.0542 4.80521 36.0006 7.34875 36.0006 10.0009H56.0004ZM36.0006 46.0005C36.0006 48.6526 37.0542 51.1962 38.9295 53.0715C40.8049 54.9468 43.3484 56.0004 46.0005 56.0004C48.6527 56.0004 51.1962 54.9468 53.0715 53.0715C54.9469 51.1962 56.0004 48.6526 56.0004 46.0005H36.0006ZM179.999 68.0003V149.999H199.999V68.0003H179.999ZM149.999 179.999H100H50.0005V199.999H149.999V179.999ZM20.0008 149.999V68.0003H0.00101788V149.999H20.0008ZM50.0105 38.0006H149.979V18.0008H50.0305V38.0006H50.0105ZM191.209 32.5015H10.344V58.2451H191.209V32.5015ZM144 10.0009V46.0005H163.999V10.0009H144ZM36.0006 10.0009V46.0005H56.0004V10.0009H36.0006ZM50.0005 179.999C40.2906 179.999 34.0107 179.979 29.3907 179.359C25.0508 178.769 23.6908 177.829 22.9308 177.069L8.79093 191.209C13.8909 196.309 20.1708 198.299 26.7207 199.179C33.0007 200.019 40.8506 199.999 50.0005 199.999V179.999ZM0.00101788 149.999C0.00101788 159.149 -0.0189817 167.009 0.82101 173.279C1.701 179.829 3.69098 186.119 8.79093 191.209L22.9308 177.069C22.1708 176.309 21.2308 174.949 20.6408 170.609C20.0208 165.999 20.0008 159.709 20.0008 149.999H0.00101788ZM179.999 149.999C179.999 159.709 179.979 165.989 179.359 170.609C178.769 174.949 177.829 176.309 177.069 177.069L191.209 191.209C196.309 186.109 198.299 179.829 199.179 173.279C200.019 166.999 199.999 159.149 199.999 149.999H179.999ZM149.999 199.999C159.149 199.999 167.009 200.019 173.279 199.179C179.829 198.299 186.119 196.309 191.209 191.209L177.069 177.069C176.309 177.829 174.949 178.769 170.609 179.359C165.989 179.979 159.709 179.999 149.999 179.999V199.999ZM199.999 68.0003C199.999 58.8504 200.019 50.9904 199.179 44.7205C198.299 38.1706 196.309 31.8806 191.209 26.7907L177.069 40.9306C177.829 41.6905 178.769 43.0506 179.359 47.3905C179.979 52.0104 179.999 58.2904 179.999 68.0003H199.999ZM149.989 38.0006C159.699 38.0006 165.989 38.0206 170.609 38.6406C174.949 39.2306 176.309 40.1706 177.069 40.9306L191.209 26.7907C186.109 21.6908 179.829 19.7008 173.269 18.8208C166.999 17.9808 159.139 18.0008 149.999 18.0008L149.989 38.0006ZM20.0008 68.0003C20.0008 58.2904 20.0208 52.0104 20.6408 47.3905C21.2308 43.0506 22.1708 41.6905 22.9308 40.9306L8.79093 26.7907C3.69098 31.8906 1.701 38.1706 0.82101 44.7205C-0.0189817 51.0004 0.00101788 58.8504 0.00101788 68.0003H20.0008ZM50.0105 18.0008C40.8606 18.0008 33.0007 17.9808 26.7307 18.8208C20.1708 19.7008 13.8809 21.6908 8.79093 26.7907L22.9308 40.9306C23.6908 40.1706 25.0508 39.2306 29.3907 38.6406C34.0207 38.0206 40.2906 38.0006 50.0105 38.0006V18.0008Z" fill="#FF7F50"/>
<path d="M101.266 123.007C94.9363 129.547 84.5302 129.8 77.8903 123.575L69.8397 116.028C66.1564 112.575 60.3975 112.668 56.8274 116.238C53.0616 120.004 53.1951 126.149 57.121 129.748L78.0946 148.974C84.6723 155.003 94.832 154.782 101.142 148.473L146.492 103.122C150.138 99.476 150.138 93.5645 146.492 89.9184C142.804 86.2299 136.809 86.279 133.181 90.0275L101.266 123.007Z" fill="#FF7F50"/>
<path d="M22.9308 177.069L34.6292 181.527L14.0786 168.217L22.9308 177.069ZM191.209 191.209L200.088 200.035L208.887 191.182L200.061 182.357L191.209 191.209ZM191.209 26.7907L202.908 31.2482L182.357 17.9385L191.209 26.7907ZM8.79093 26.7907L17.6431 17.9385L-13.4927 -13.1974L-3.39433 29.6618L8.79093 26.7907ZM144 22.5198H163.999V-2.51805H144V22.5198ZM163.999 33.4816H144V58.5194H163.999V33.4816ZM36.0006 22.5198H56.0004V-2.51805H36.0006V22.5198ZM56.0004 33.4816H36.0006V58.5194H56.0004V33.4816ZM25.8922 204.456L34.6292 181.527L11.2323 172.612L2.49526 195.541L25.8922 204.456ZM191.351 208.824L200.088 200.035L182.33 182.383L173.593 191.173L191.351 208.824ZM194.17 54.1785L202.908 31.2482L179.511 22.3332L170.773 45.2635L194.17 54.1785ZM26.379 46.85L20.9762 23.9196L-3.39433 29.6618L2.00846 52.5921L26.379 46.85ZM179.999 162.518H199.999V137.481H179.999V162.518ZM199.999 55.4813H179.999V80.5192H199.999V55.4813ZM37.4816 179.999V199.999H62.5194V179.999H37.4816ZM162.518 199.999V179.999H137.481V199.999H162.518ZM20.0008 55.4813H0.00101788V80.5192H20.0008V55.4813ZM0.00101788 162.518H20.0008V137.481H0.00101788V162.518ZM14.0786 168.217L-0.0612846 182.357L17.6431 200.061L31.783 185.921L14.0786 168.217ZM168.217 185.921L182.357 200.061L200.061 182.357L185.921 168.217L168.217 185.921ZM182.357 17.9385L168.217 32.0783L185.921 49.7828L200.061 35.6429L182.357 17.9385ZM31.783 32.0783L17.6431 17.9385L-0.0612915 35.6429L14.0786 49.7828L31.783 32.0783ZM153.999 0.000976562L153.999 -25.0369L153.999 0.000976562ZM46.0005 0.000976562L46.0005 -25.0369L46.0005 0.000976562ZM191.209 191.209L173.505 173.505L173.496 173.513L173.487 173.522L191.209 191.209ZM191.209 26.7907L173.505 44.4952L173.513 44.5039L173.522 44.5125L191.209 26.7907ZM8.79093 26.7907L26.4953 44.4952L26.504 44.4865L26.5127 44.4778L8.79093 26.7907ZM149.979 38.0006V63.0384H175.017V38.0006H149.979ZM149.979 18.0008H175.017V-7.03706H149.979V18.0008ZM50.0305 18.0008V-7.03706H24.9926V18.0008H50.0305ZM50.0305 38.0006V63.0384H75.0683V38.0006H50.0305ZM191.209 32.5015H216.247V7.4637H191.209V32.5015ZM10.344 32.5015V7.4637H-14.6938V32.5015H10.344ZM10.344 58.2451H-14.6938V83.2829H10.344V58.2451ZM191.209 58.2451V83.2829H216.247V58.2451H191.209ZM29.3907 179.359L26.018 204.169L26.0393 204.172L26.0605 204.175L29.3907 179.359ZM8.79093 191.209L26.4953 173.505L26.4866 173.496L26.4779 173.487L8.79093 191.209ZM26.7207 199.179L23.3868 223.994L23.3941 223.995L23.4013 223.996L26.7207 199.179ZM0.82101 173.279L-23.9951 176.604L-23.9939 176.613L0.82101 173.279ZM20.6408 170.609L-4.17363 173.947L-4.17125 173.964L-4.16884 173.982L20.6408 170.609ZM179.359 170.609L204.169 173.982L204.172 173.961L204.175 173.939L179.359 170.609ZM199.179 173.279L223.994 176.613L223.995 176.606L223.996 176.599L199.179 173.279ZM173.279 199.179L176.604 223.995L176.613 223.994L173.279 199.179ZM170.609 179.359L173.939 204.175L173.961 204.172L173.982 204.169L170.609 179.359ZM199.179 44.7205L223.995 41.3959L223.994 41.3866L199.179 44.7205ZM179.359 47.3905L204.175 44.0603L204.172 44.039L204.169 44.0177L179.359 47.3905ZM149.989 38.0006L124.952 37.9881L124.939 63.0384H149.989V38.0006ZM170.609 38.6406L173.982 13.8309L173.961 13.828L173.939 13.8252L170.609 38.6406ZM173.269 18.8208L176.598 -5.99478L176.594 -5.99536L173.269 18.8208ZM149.999 18.0008V-7.03706H124.974L124.962 17.9883L149.999 18.0008ZM20.6408 47.3905L-4.16884 44.0177L-4.17173 44.039L-4.17459 44.0603L20.6408 47.3905ZM0.82101 44.7205L-23.9939 41.3866L-23.9949 41.3938L-23.9958 41.4011L0.82101 44.7205ZM50.0105 18.0008H75.0483V-7.03706H50.0105V18.0008ZM26.7307 18.8208L23.4061 -5.99536L23.4018 -5.99478L26.7307 18.8208ZM29.3907 38.6406L26.0676 13.8242L26.0428 13.8276L26.018 13.8309L29.3907 38.6406ZM146.492 89.9184L128.788 107.623L146.492 89.9184ZM133.181 90.0275L115.189 72.6156L115.189 72.6156L133.181 90.0275ZM146.492 103.122L164.197 120.827L164.197 120.827L146.492 103.122ZM78.0946 148.974L95.0133 130.517L95.0133 130.517L78.0946 148.974ZM101.142 148.473L83.4371 130.768L83.4371 130.768L101.142 148.473ZM57.121 129.748L40.2023 148.205L40.2023 148.205L57.121 129.748ZM69.8397 116.028L52.7153 134.294L52.7153 134.294L69.8397 116.028ZM77.8903 123.575L95.0147 105.309L95.0147 105.309L77.8903 123.575ZM101.266 123.007L119.258 140.419L119.258 140.419L101.266 123.007ZM189.037 10.0009C189.037 0.708388 185.346 -8.20367 178.775 -14.7746L143.366 20.6344C140.546 17.8141 138.961 13.9891 138.961 10.0009H189.037ZM178.775 -14.7746C172.204 -21.3454 163.292 -25.0369 153.999 -25.0369L153.999 25.0388C150.011 25.0388 146.186 23.4545 143.366 20.6344L178.775 -14.7746ZM153.999 -25.0369C144.707 -25.0369 135.795 -21.3453 129.224 -14.7746L164.633 20.6344C161.813 23.4544 157.988 25.0388 153.999 25.0388L153.999 -25.0369ZM129.224 -14.7746C122.653 -8.20381 118.962 0.708184 118.962 10.0009H169.037C169.037 13.9893 167.453 17.8142 164.633 20.6344L129.224 -14.7746ZM118.962 46.0005C118.962 55.2932 122.653 64.2052 129.224 70.776L164.633 35.367C167.453 38.1871 169.037 42.0121 169.037 46.0005H118.962ZM129.224 70.776C135.795 77.3467 144.707 81.0383 153.999 81.0383V30.9626C157.988 30.9626 161.813 32.547 164.633 35.367L129.224 70.776ZM153.999 81.0383C163.292 81.0383 172.204 77.3468 178.775 70.776L143.366 35.367C146.186 32.5469 150.011 30.9626 153.999 30.9626V81.0383ZM178.775 70.776C185.346 64.2051 189.037 55.293 189.037 46.0005H138.961C138.961 42.0123 140.546 38.1873 143.366 35.367L178.775 70.776ZM81.0383 10.0009C81.0383 0.708337 77.3468 -8.20371 70.7759 -14.7746L35.3671 20.6344C32.5469 17.8141 30.9626 13.9892 30.9626 10.0009H81.0383ZM70.7759 -14.7746C64.2051 -21.3454 55.2932 -25.0369 46.0005 -25.0369L46.0005 25.0388C42.0122 25.0388 38.1873 23.4545 35.3671 20.6344L70.7759 -14.7746ZM46.0005 -25.0369C36.7079 -25.0369 27.796 -21.3454 21.2251 -14.7746L56.6339 20.6344C53.8138 23.4545 49.9889 25.0388 46.0005 25.0388L46.0005 -25.0369ZM21.2251 -14.7746C14.6542 -8.20371 10.9628 0.708337 10.9628 10.0009H61.0385C61.0385 13.9892 59.4542 17.8141 56.6339 20.6344L21.2251 -14.7746ZM10.9628 46.0005C10.9628 55.2931 14.6542 64.2051 21.2251 70.776L56.6339 35.367C59.4542 38.1872 61.0385 42.0122 61.0385 46.0005H10.9628ZM21.2251 70.776C27.796 77.3468 36.7079 81.0383 46.0005 81.0383V30.9626C49.9889 30.9626 53.8138 32.5469 56.6339 35.367L21.2251 70.776ZM46.0005 81.0383C55.2932 81.0383 64.2051 77.3468 70.7759 70.776L35.3671 35.367C38.1873 32.5469 42.0122 30.9626 46.0005 30.9626V81.0383ZM70.7759 70.776C77.3468 64.2051 81.0383 55.2931 81.0383 46.0005H30.9626C30.9626 42.0122 32.5469 38.1872 35.3671 35.367L70.7759 70.776ZM154.961 68.0003V149.999H205.037V68.0003H154.961ZM225.037 149.999V68.0003H174.961V149.999H225.037ZM50.0005 225.037H149.999V174.961H50.0005V225.037ZM45.0387 149.999V68.0003H-5.03704V149.999H45.0387ZM-25.0368 68.0003V149.999H25.0389V68.0003H-25.0368ZM50.0105 63.0384H149.979V12.9627H50.0105V63.0384ZM175.017 38.0006V18.0008H124.942V38.0006H175.017ZM149.979 -7.03706H50.0305V43.0386H149.979V-7.03706ZM24.9926 18.0008V38.0006H75.0683V18.0008H24.9926ZM50.0305 12.9627H50.0105V63.0384H50.0305V12.9627ZM191.209 7.4637H10.344V57.5394H191.209V7.4637ZM-14.6938 32.5015V58.2451H35.3819V32.5015H-14.6938ZM10.344 83.2829H191.209V33.2072H10.344V83.2829ZM216.247 58.2451V32.5015H166.171V58.2451H216.247ZM118.962 10.0009V46.0005H169.037V10.0009H118.962ZM189.037 46.0005V10.0009H138.961V46.0005H189.037ZM10.9628 10.0009V46.0005H61.0385V10.0009H10.9628ZM81.0383 46.0005V10.0009H30.9626V46.0005H81.0383ZM50.0005 154.961C39.549 154.961 35.2804 154.887 32.7209 154.544L26.0605 204.175C32.7409 205.071 41.0322 205.037 50.0005 205.037V154.961ZM32.7634 154.549C31.8423 154.424 32.6943 154.442 34.3766 155.136C35.3016 155.518 36.4411 156.089 37.6698 156.92C38.9404 157.778 39.9324 158.662 40.6352 159.365L5.22639 194.774C11.3911 200.938 18.8871 203.199 26.018 204.169L32.7634 154.549ZM-8.91347 208.913C1.61379 219.441 14.0581 222.741 23.3868 223.994L30.0546 174.364C28.1363 174.106 27.1711 173.8 26.738 173.622C26.6388 173.581 26.5747 173.549 26.5387 173.531C26.5204 173.521 26.5081 173.514 26.5008 173.51C26.4971 173.508 26.4945 173.506 26.4929 173.505C26.4912 173.504 26.4904 173.504 26.4904 173.504C26.4903 173.504 26.4909 173.504 26.4919 173.505C26.493 173.505 26.4944 173.506 26.496 173.508C26.4995 173.51 26.503 173.513 26.506 173.515C26.5136 173.521 26.5105 173.52 26.4953 173.505L-8.91347 208.913ZM23.4013 223.996C31.7196 225.108 41.5228 225.037 50.0005 225.037V174.961C40.1784 174.961 34.2817 174.929 30.0402 174.362L23.4013 223.996ZM-25.0368 149.999C-25.0368 158.473 -25.1087 168.292 -23.9951 176.604L25.6371 169.955C25.0708 165.727 25.0389 159.825 25.0389 149.999H-25.0368ZM-23.9939 176.613C-22.7431 185.923 -19.4478 198.4 -8.89609 208.931L26.4779 173.487C26.4659 173.475 26.4815 173.491 26.4942 173.511C26.5029 173.524 26.4588 173.461 26.3798 173.269C26.2012 172.835 25.894 171.866 25.6359 169.945L-23.9939 176.613ZM40.6352 159.365C41.3379 160.067 42.2215 161.059 43.0802 162.33C43.9106 163.559 44.4815 164.698 44.8636 165.623C45.5584 167.306 45.5757 168.158 45.4504 167.236L-4.16884 173.982C-3.19943 181.113 -0.938375 188.609 5.22639 194.774L40.6352 159.365ZM45.4552 167.272C45.113 164.728 45.0387 160.456 45.0387 149.999H-5.03704C-5.03704 158.963 -5.07142 167.271 -4.17363 173.947L45.4552 167.272ZM154.961 149.999C154.961 160.451 154.887 164.72 154.544 167.279L204.175 173.939C205.071 167.259 205.037 158.968 205.037 149.999H154.961ZM154.55 167.236C154.424 168.158 154.442 167.306 155.136 165.623C155.518 164.698 156.089 163.559 156.92 162.33C157.778 161.06 158.662 160.067 159.365 159.365L194.774 194.774C200.938 188.609 203.199 181.113 204.169 173.982L154.55 167.236ZM208.913 208.913C219.441 198.386 222.741 185.942 223.994 176.613L174.364 169.945C174.106 171.864 173.8 172.829 173.622 173.262C173.581 173.361 173.549 173.425 173.531 173.461C173.521 173.48 173.514 173.492 173.51 173.499C173.508 173.503 173.506 173.505 173.505 173.507C173.504 173.509 173.504 173.51 173.504 173.51C173.504 173.51 173.504 173.509 173.505 173.508C173.505 173.507 173.506 173.506 173.508 173.504C173.51 173.5 173.513 173.497 173.515 173.494C173.521 173.486 173.52 173.489 173.505 173.505L208.913 208.913ZM223.996 176.599C225.108 168.28 225.037 158.477 225.037 149.999H174.961C174.961 159.822 174.929 165.718 174.362 169.96L223.996 176.599ZM149.999 225.037C158.473 225.037 168.292 225.109 176.604 223.995L169.955 174.363C165.727 174.929 159.825 174.961 149.999 174.961V225.037ZM176.613 223.994C185.923 222.743 198.4 219.448 208.931 208.896L173.487 173.522C173.475 173.534 173.491 173.518 173.511 173.506C173.524 173.497 173.461 173.541 173.269 173.62C172.835 173.799 171.866 174.106 169.945 174.364L176.613 223.994ZM159.365 159.365C160.068 158.662 161.06 157.778 162.33 156.92C163.559 156.089 164.698 155.518 165.623 155.136C167.306 154.442 168.158 154.424 167.237 154.549L173.982 204.169C181.113 203.199 188.609 200.938 194.774 194.774L159.365 159.365ZM167.279 154.544C164.72 154.887 160.451 154.961 149.999 154.961V205.037C158.968 205.037 167.259 205.071 173.939 204.175L167.279 154.544ZM225.037 68.0003C225.037 59.5263 225.109 49.708 223.995 41.3959L174.363 48.0452C174.929 52.2729 174.961 58.1745 174.961 68.0003H225.037ZM223.994 41.3866C222.743 32.0766 219.448 19.5999 208.896 9.06886L173.522 44.5125C173.534 44.5246 173.518 44.5086 173.506 44.4891C173.497 44.4758 173.541 44.5385 173.62 44.7306C173.799 45.1649 174.106 46.1332 174.364 48.0544L223.994 41.3866ZM159.365 58.635C158.662 57.9323 157.778 56.9402 156.92 55.6696C156.089 54.4409 155.518 53.3014 155.136 52.3764C154.442 50.6942 154.424 49.8421 154.55 50.7632L204.169 44.0177C203.199 36.8869 200.938 29.3908 194.774 23.2261L159.365 58.635ZM154.544 50.7207C154.887 53.2802 154.961 57.5488 154.961 68.0003H205.037C205.037 59.032 205.071 50.7407 204.175 44.0603L154.544 50.7207ZM149.989 63.0384C160.442 63.0384 164.72 63.1125 167.279 63.456L173.939 13.8252C167.259 12.9287 158.957 12.9627 149.989 12.9627V63.0384ZM167.237 63.4502C168.158 63.5754 167.306 63.5582 165.623 62.8633C164.698 62.4813 163.559 61.9103 162.33 61.08C161.059 60.2213 160.067 59.3377 159.365 58.635L194.774 23.2261C188.609 17.0615 181.113 14.8004 173.982 13.8309L167.237 63.4502ZM208.913 9.08623C198.384 -1.44321 185.937 -4.74205 176.598 -5.99478L169.94 43.6364C171.864 43.8944 172.831 44.2016 173.264 44.3796C173.363 44.4204 173.427 44.4516 173.463 44.4702C173.481 44.4796 173.493 44.4865 173.5 44.4907C173.504 44.4928 173.507 44.4943 173.508 44.4953C173.509 44.4958 173.51 44.4961 173.51 44.4964C173.51 44.4966 173.51 44.4967 173.51 44.4967C173.51 44.4967 173.51 44.4966 173.51 44.4964C173.51 44.4962 173.509 44.4959 173.509 44.4956C173.508 44.4948 173.506 44.4938 173.504 44.4925C173.501 44.4899 173.497 44.4872 173.494 44.4846C173.486 44.4784 173.489 44.48 173.505 44.4952L208.913 9.08623ZM176.594 -5.99536C168.282 -7.10892 158.464 -7.03706 149.999 -7.03706V43.0386C159.815 43.0386 165.717 43.0705 169.945 43.6369L176.594 -5.99536ZM124.962 17.9883L124.952 37.9881L175.027 38.0131L175.037 18.0133L124.962 17.9883ZM45.0387 68.0003C45.0387 57.5489 45.1127 53.2802 45.4562 50.7207L-4.17459 44.0603C-5.07109 50.7407 -5.03704 59.032 -5.03704 68.0003H45.0387ZM45.4504 50.7632C45.5757 49.8421 45.5584 50.6942 44.8636 52.3765C44.4815 53.3014 43.9106 54.4409 43.0802 55.6696C42.2215 56.9402 41.3379 57.9323 40.6352 58.635L5.22639 23.2261C-0.938375 29.3908 -3.19943 36.8869 -4.16884 44.0177L45.4504 50.7632ZM-8.91347 9.08623C-19.4408 19.6135 -22.7406 32.058 -23.9939 41.3866L25.6359 48.0544C25.8936 46.1361 26.2003 45.1708 26.3784 44.7378C26.4192 44.6385 26.4505 44.5744 26.4692 44.5385C26.4787 44.5202 26.4857 44.5078 26.49 44.5006C26.4921 44.4969 26.4937 44.4943 26.4947 44.4926C26.4957 44.491 26.4962 44.4902 26.4962 44.4902C26.4963 44.4901 26.4959 44.4907 26.4952 44.4917C26.4945 44.4928 26.4935 44.4942 26.4923 44.4958C26.4898 44.4993 26.4871 44.5028 26.4846 44.5059C26.4785 44.5134 26.4801 44.5104 26.4953 44.4952L-8.91347 9.08623ZM-23.9958 41.4011C-25.1085 49.7194 -25.0368 59.5227 -25.0368 68.0003H25.0389C25.0389 58.1781 25.0705 52.2815 25.6378 48.04L-23.9958 41.4011ZM50.0105 -7.03706C41.5365 -7.03706 31.7182 -7.10893 23.4061 -5.99536L30.0554 43.6369C34.2831 43.0705 40.1847 43.0386 50.0105 43.0386V-7.03706ZM23.4018 -5.99478C14.0816 -4.74452 1.60233 -1.4502 -8.93084 9.10361L26.5127 44.4778C26.5247 44.4657 26.5085 44.4816 26.4885 44.4946C26.4746 44.5037 26.5368 44.4599 26.7288 44.3809C27.1629 44.2025 28.1328 43.8948 30.0596 43.6364L23.4018 -5.99478ZM40.6352 58.635C39.9325 59.3377 38.9405 60.2213 37.6699 61.08C36.4412 61.9103 35.3017 62.4813 34.3767 62.8633C32.6944 63.5582 31.8423 63.5754 32.7634 63.4502L26.018 13.8309C18.8869 14.8004 11.391 17.0615 5.22639 23.2261L40.6352 58.635ZM32.7138 63.4569C35.2883 63.1122 39.5535 63.0384 50.0105 63.0384V12.9627C41.0277 12.9627 32.753 12.929 26.0676 13.8242L32.7138 63.4569ZM75.0483 38.0006V18.0008H24.9726V38.0006H75.0483ZM149.999 154.961H100V205.037H149.999V154.961ZM100 154.961H50.0005V205.037H100V154.961ZM95.0147 105.309L86.9641 97.7619L52.7153 134.294L60.7658 141.841L95.0147 105.309ZM40.2023 148.205L61.1759 167.43L95.0133 130.517L74.0397 111.291L40.2023 148.205ZM118.846 166.177L164.197 120.827L128.788 85.4177L83.4371 130.768L118.846 166.177ZM115.189 72.6156L83.2735 105.595L119.258 140.419L151.173 107.439L115.189 72.6156ZM164.197 72.2139C150.617 58.6341 128.544 58.815 115.189 72.6156L151.173 107.439C145.073 113.743 134.991 113.826 128.788 107.623L164.197 72.2139ZM164.197 120.827C177.621 107.403 177.621 85.638 164.197 72.2139L128.788 107.623C122.656 101.491 122.656 91.5495 128.788 85.4177L164.197 120.827ZM61.1759 167.43C77.6352 182.518 103.058 181.966 118.846 166.177L83.4371 130.768C86.6063 127.599 91.7094 127.488 95.0133 130.517L61.1759 167.43ZM39.123 98.5333C25.2775 112.379 25.7684 134.974 40.2023 148.205L74.0397 111.291C80.6218 117.325 80.8457 127.628 74.5319 133.942L39.123 98.5333ZM86.9642 97.7619C73.422 85.0662 52.2487 85.4076 39.123 98.5333L74.5319 133.942C68.5463 139.928 58.8908 140.083 52.7153 134.294L86.9642 97.7619ZM60.7658 141.841C77.381 157.418 103.42 156.785 119.258 140.419L83.2735 105.595C86.4527 102.31 91.6795 102.183 95.0147 105.309L60.7658 141.841Z" fill="#FF7F50" mask="url(#path-1-inside-1_1543_6120)"/>
</svg>
