<svg width="200" height="165" viewBox="0 0 200 165" fill="none" xmlns="http://www.w3.org/2000/svg">
<path d="M125.362 25.3746C128.631 28.7153 130.941 32.8411 132.23 37.6379C133.452 42.1911 134.706 47.2555 134.023 52.6921C133.77 54.703 133.396 56.9805 132.851 59.3895C137.074 63.1173 142.606 65.4838 149.799 65.4835C169.755 65.482 176.936 47.2671 178.814 32.3051C181.13 13.8724 171.57 0 149.799 0C132.716 0 122.172 8.54605 119.965 21.1341C121.961 22.3386 123.772 23.7495 125.362 25.3746Z" fill="#FF7F50"/>
<path d="M199.992 114.84C199.789 109.194 199.092 103.521 198.054 97.9624C196.798 91.229 195.197 81.3567 189.006 76.9681C185.426 74.4315 180.789 73.5989 176.691 72.0693C174.695 71.3248 172.908 69.8419 171.231 69.0004C165.57 74.8958 158.188 77.9791 149.592 77.9797C142.903 77.9797 137.19 76.1033 132.21 72.4954C131.064 75.8628 130.273 79.9974 128.221 83.0957C130.023 84.126 130.991 84.9491 133.36 85.8328C134.408 86.2241 135.559 86.5814 136.778 86.9593C140.072 87.9816 143.806 89.1404 147.158 91.5167C155.127 97.165 158.812 107.749 160.245 115.478L160.399 116.312C161.14 120.275 161.684 124.169 162.034 127.951C168.394 127.333 172.997 126.276 179.201 125.032C184.217 124.026 189.198 122.8 194.022 121.147C197.876 119.827 200.15 119.213 199.992 114.84Z" fill="#FF7F50"/>
<path d="M49.8301 65.4835C57.0227 65.4842 62.5547 63.1173 66.778 59.3895C66.2328 56.9809 65.8587 54.703 65.6057 52.6922C64.923 47.2559 66.177 42.1912 67.3995 37.6381C68.6878 32.8416 70.998 28.7154 74.2673 25.3748C75.8571 23.7494 77.6674 22.3385 79.6636 21.134C77.4567 8.54601 66.9128 0 49.829 0C28.0587 0 18.4985 13.8727 20.8138 32.3049C22.6941 47.2675 29.8746 65.4823 49.8301 65.4835Z" fill="#FF7F50"/>
<path d="M52.8417 91.5167C56.1939 89.1405 59.928 87.9816 63.222 86.9593C64.4412 86.5814 65.5914 86.2241 66.64 85.8328C69.0084 84.9494 69.9776 84.1266 71.7791 83.0957C69.7278 79.998 68.936 75.8628 67.7899 72.4954C62.8099 76.1033 57.0969 77.9797 50.4082 77.9797C41.8124 77.9794 34.4297 74.8955 28.7686 69.0004C27.092 69.8419 25.3041 71.3245 23.3088 72.0693C19.2107 73.5989 14.5742 74.4315 10.994 76.9681C4.80304 81.357 3.20197 91.2287 1.94604 97.9624C0.907826 103.521 0.210646 109.194 0.00772188 114.84C-0.150213 119.214 2.1238 119.827 5.97717 121.147C10.8014 122.799 15.7836 124.026 20.7982 125.032C27.0024 126.276 31.6062 127.333 37.9658 127.951C38.3156 124.169 38.8596 120.276 39.6008 116.312L39.755 115.478C41.1877 107.75 44.8729 97.165 52.8417 91.5167Z" fill="#FF7F50"/>
<path d="M152.354 125.884L152.196 124.935C150.832 116.744 148.221 106.27 141.142 100.685C138.156 98.3305 134.777 97.1636 131.508 96.0344C130.22 95.5899 129.005 95.1698 127.848 94.6891C126.16 93.9884 124.639 93.3022 123.215 92.5436C117.23 100.983 109.679 104.683 99.8126 104.685C89.9488 104.685 82.399 100.984 76.4145 92.5436C74.9894 93.3029 73.4689 93.9887 71.7806 94.6898C70.6243 95.1698 69.4084 95.5899 68.1214 96.0344C64.8521 97.1633 61.4716 98.3308 58.487 100.685C51.406 106.271 48.7954 116.747 47.4319 124.94L47.274 125.886C46.1346 132.685 45.4546 139.281 45.2535 145.49C45.0174 152.775 49.2957 154.399 53.0699 155.832L53.4764 155.986C58.0151 157.717 63.0922 159.2 68.9974 160.518C81.0556 163.208 90.8412 164.493 99.7909 164.56H99.8139H99.837C108.788 164.492 118.573 163.208 130.63 160.518C136.536 159.2 141.612 157.718 146.149 155.987L146.555 155.832C150.33 154.4 154.61 152.776 154.374 145.49C154.173 139.264 153.493 132.669 152.354 125.884Z" fill="#FF7F50"/>
<path d="M74.6418 59.0345C76.2722 73.9976 82.5009 92.2143 99.8134 92.2134C117.126 92.2125 123.355 73.9976 124.986 59.0345C126.995 40.6022 118.7 26.7299 99.8134 26.7299C80.9301 26.7292 72.6299 40.6006 74.6418 59.0345Z" fill="#FF7F50"/>
</svg>
