<svg width="501" height="42" viewBox="0 0 501 42" fill="none" xmlns="http://www.w3.org/2000/svg">
<path d="M498 3C498 5.61439 497.486 8.20318 496.485 10.6186C495.485 13.0339 494.018 15.2286 492.169 17.0773C490.321 18.9259 488.126 20.3923 485.711 21.3928C483.295 22.3933 481.044 23 478.429 23H265.429L251.494 37.4335C251.494 37.4335 249.503 39.4243 248.01 39.4243C246.517 39.4243 245.521 38.4289 244.526 37.4335L230.592 23L126.046 22.9602H23C20.3856 22.9602 17.7968 22.4453 15.3814 21.4448C12.9661 20.4443 10.7714 18.9779 8.92275 17.1292C7.0741 15.2806 5.60767 13.0859 4.60718 10.6705C3.6067 8.25514 3.09176 5.66635 3.09176 3.05196" stroke="#FF7F50" stroke-width="4.5" stroke-linecap="round"/>
</svg>
