<svg width="240" height="175" viewBox="0 0 240 175" fill="none" xmlns="http://www.w3.org/2000/svg">
<path d="M216 0C139.27 0 100.761 0 24 0C10.6875 0 0 9.71593 0 21.8182V152.728C0 164.83 10.6875 174.546 24 174.546H216C229.313 174.546 240 164.83 240 152.728V21.8182C240 9.71593 229.313 0 216 0ZM72 43.6365C85.3125 43.6365 96 53.3524 96 65.4547C96 77.557 85.3125 87.2729 72 87.2729C58.6875 87.2729 48 77.557 48 65.4547C48 53.3524 58.6875 43.6365 72 43.6365ZM36.1875 130.909C36.1875 110.753 50.2031 98.0116 72.375 98.0116C94.5469 98.0116 108.563 110.753 108.563 130.909H36.1875ZM204.188 130.909H132.188V109.091H204.188V130.909ZM204.188 87.2729H132.188V65.4547H204.188V87.2729Z" fill="#FF7F50"/>
</svg>
