<svg width="200" height="161" viewBox="0 0 200 161" fill="none" xmlns="http://www.w3.org/2000/svg">
<path d="M30 40.0004C30 29.3916 34.2143 19.2174 41.7157 11.7158C49.2172 4.21432 59.3913 0 70 0C80.6087 0 90.7828 4.21432 98.2843 11.7158C105.786 19.2174 110 29.3916 110 40.0004C110 50.6092 105.786 60.7834 98.2843 68.285C90.7828 75.7865 80.6087 80.0008 70 80.0008C59.3913 80.0008 49.2172 75.7865 41.7157 68.285C34.2143 60.7834 30 50.6092 30 40.0004ZM0 150.72C0 119.939 24.9375 95.001 55.7188 95.001H84.2813C115.063 95.001 140 119.939 140 150.72C140 155.845 135.844 160.002 130.719 160.002H9.28125C4.15625 160.002 0 155.845 0 150.72ZM190.406 160.002H147.312C149 157.064 150 153.658 150 150.002V147.502C150 128.533 141.531 111.501 128.188 100.064C128.938 100.032 129.656 100.001 130.406 100.001H149.594C177.438 100.001 200 122.564 200 150.408C200 155.72 195.687 160.002 190.406 160.002ZM135 80.0008C125.312 80.0008 116.563 76.0633 110.219 69.7195C116.375 61.4069 120 51.1255 120 40.0004C120 31.6253 117.938 23.719 114.281 16.7814C120.094 12.5314 127.25 10.0001 135 10.0001C154.344 10.0001 170 25.6565 170 45.0005C170 64.3444 154.344 80.0008 135 80.0008Z" fill="#FF7F50"/>
</svg>
