<svg width="274" height="487" viewBox="0 0 274 487" fill="none" xmlns="http://www.w3.org/2000/svg">
<g clip-path="url(#clip0_4034_3498)">
<path d="M227.016 -0.285156H46.6273C25.5591 -0.285156 -0.116211 23.2214 -0.116211 43.5055V443.627C-0.116211 463.913 25.56 487.419 46.6273 487.419H227.023C248.091 487.419 273.767 463.913 273.767 443.627V43.5055C273.759 23.2214 248.083 -0.285156 227.016 -0.285156ZM42.2795 415.359V62.0827H231.372V415.359H42.2795Z" fill="#FF7F50"/>
<path d="M54.2336 41.8039C57.5285 41.8039 60.1996 39.2321 60.1996 36.0597C60.1996 32.8872 57.5285 30.3154 54.2336 30.3154C50.9387 30.3154 48.2676 32.8872 48.2676 36.0597C48.2676 39.2321 50.9387 41.8039 54.2336 41.8039Z" fill="#FF7F50"/>
<path d="M158.027 30.3301H109.943C107.01 30.3301 105.498 32.4659 106.553 35.092L106.705 35.4599C107.767 38.0869 110.997 40.2218 113.929 40.2218H155.376C158.308 40.2218 161.274 38.0048 162.014 35.2794C162.735 32.5395 160.95 30.3301 158.027 30.3301Z" fill="#FF7F50"/>
<path d="M95.626 450.682H173.466" stroke="white" stroke-width="19.5" stroke-linecap="round"/>
</g>
<defs>
<clipPath id="clip0_4034_3498">
<rect width="274" height="487" fill="white"/>
</clipPath>
</defs>
</svg>
