<svg width="332" height="42" viewBox="0 0 332 42" fill="none" xmlns="http://www.w3.org/2000/svg">
<path d="M329 3C329 5.61439 328.661 8.20318 328.002 10.6186C327.343 13.0339 326.377 15.2286 325.159 17.0773C323.941 18.9259 322.496 20.3923 320.905 21.3928C319.314 22.3933 317.83 23 316.108 23H175.804L166.624 37.4335C166.624 37.4335 165.313 39.4243 164.329 39.4243C163.346 39.4243 162.69 38.4289 162.034 37.4335L152.856 23L83.9911 22.9602H16.1137C14.3916 22.9602 12.6863 22.4453 11.0953 21.4448C9.50425 20.4443 8.05861 18.9779 6.84089 17.1292C5.62317 15.2806 4.65722 13.0859 3.9982 10.6705C3.33917 8.25514 2.99997 5.66635 2.99997 3.05196" stroke="#FF7F50" stroke-width="4.5" stroke-linecap="round"/>
</svg>
