<svg width="218" height="190" viewBox="0 0 218 190" fill="none" xmlns="http://www.w3.org/2000/svg">
<g clip-path="url(#clip0_1596_6186)">
<path d="M192.252 117.206C195.236 118.526 198.896 116.861 200.481 113.463L214.57 83.2494C216.173 79.8103 215.047 75.8908 212.054 74.4952L57.7178 2.52693C54.7251 1.13139 50.9987 2.78813 49.395 6.22722L35.3081 36.4367C34.5345 38.0957 34.3689 39.9552 34.8483 41.602C35.3276 43.2482 36.4022 44.5439 37.8616 45.2087C37.9191 45.2345 37.9764 45.2597 38.0362 45.2851C44.4219 48.3159 46.8226 56.7432 43.3851 64.115C39.9462 71.4896 31.9425 75.0668 25.515 72.1172C25.4623 72.0906 25.4091 72.0642 25.3553 72.0381C25.3412 72.0316 25.3274 72.0252 25.3134 72.0186C23.8838 71.352 22.2091 71.361 20.6539 72.0459C19.0831 72.7367 17.7645 74.0591 16.9905 75.7189L2.90362 105.928C1.29994 109.367 2.42609 113.287 5.41884 114.683L159.755 186.651C162.748 188.046 166.475 186.39 168.078 182.951L182.167 152.737C183.751 149.34 182.673 145.465 179.745 144.027C173.479 140.952 171.139 132.537 174.529 125.268C177.918 118 185.869 114.382 192.252 117.206ZM150.015 150.181C148.411 153.621 144.685 155.277 141.692 153.882L42.1327 107.456C39.14 106.061 38.0138 102.141 39.6175 98.7023L67.4592 38.9957C69.0628 35.5566 72.7892 33.8999 75.782 35.2954L175.341 81.7207C178.334 83.1162 179.46 87.0357 177.856 90.4748L150.015 150.181Z" fill="#FF7F50"/>
<path d="M161.26 97.7708C162.837 94.3892 161.622 90.4855 158.547 89.0517L80.9614 52.8729C77.8865 51.439 74.1155 53.0179 72.5386 56.3995L56.2148 91.4059C54.638 94.7875 55.8524 98.6911 58.9274 100.125L97.7203 118.214L136.513 136.304C139.588 137.738 143.359 136.159 144.936 132.777L161.26 97.7708Z" fill="#FF7F50"/>
</g>
<defs>
<clipPath id="clip0_1596_6186">
<rect x="52.2988" width="182.25" height="123.75" rx="11.25" transform="rotate(25 52.2988 0)" fill="white"/>
</clipPath>
</defs>
</svg>
