<svg width="145" height="48" viewBox="0 0 145 48" fill="none" xmlns="http://www.w3.org/2000/svg">
<g clip-path="url(#clip0_4070_4750)">
<path d="M133.453 0.000156H11.5534C11.1091 0.000156 10.6701 0.000156 10.2269 0.002556C9.85593 0.004956 9.48792 0.011928 9.11339 0.017796C8.29973 0.0272782 7.48799 0.0981675 6.68521 0.229848C5.88356 0.364395 5.10703 0.618055 4.38187 0.982248C3.65759 1.34952 2.9958 1.82676 2.42051 2.39664C1.84219 2.96492 1.36012 3.62178 0.992827 4.34195C0.624524 5.06069 0.369141 5.83088 0.235499 6.62593C0.100586 7.41998 0.0279889 8.22318 0.0183576 9.02833C0.00711283 9.39625 0.00592534 9.7654 0 10.1334V37.8705C0.00592534 38.2431 0.00711283 38.604 0.0183576 38.9768C0.0279918 39.7819 0.100589 40.585 0.235499 41.379C0.368772 42.1745 0.62417 42.9452 0.992827 43.6642C1.35995 44.382 1.84209 45.0362 2.42051 45.6014C2.99362 46.1738 3.65584 46.6513 4.38187 47.0158C5.10702 47.381 5.88347 47.6361 6.68521 47.7728C7.48812 47.9034 8.29978 47.9743 9.11339 47.9849C9.48792 47.9931 9.85593 47.9978 10.2269 47.9978C10.6701 48.0002 11.1091 48.0002 11.5534 48.0002H133.453C133.889 48.0002 134.331 48.0002 134.767 47.9978C135.136 47.9978 135.514 47.9931 135.884 47.9849C136.696 47.9749 137.506 47.9039 138.307 47.7728C139.111 47.6352 139.891 47.3801 140.619 47.0158C141.345 46.6511 142.006 46.1736 142.579 45.6014C143.156 45.034 143.639 44.3803 144.011 43.6642C144.377 42.9447 144.63 42.1741 144.761 41.379C144.896 40.5849 144.971 39.7819 144.986 38.9768C144.991 38.604 144.991 38.2431 144.991 37.8705C145 37.4345 145 37.001 145 36.5579V11.4435C145 11.0041 145 10.5681 144.991 10.1334C144.991 9.7654 144.991 9.39625 144.986 9.02828C144.971 8.22306 144.896 7.42004 144.761 6.62588C144.629 5.83129 144.376 5.06116 144.011 4.3419C143.263 2.89839 142.077 1.72339 140.619 0.98214C139.891 0.618837 139.111 0.365245 138.307 0.22974C137.506 0.0974794 136.696 0.0265653 135.884 0.017628C135.514 0.011772 135.136 0.00474 134.767 0.0024C134.331 0 133.889 0.000156 133.453 0.000156Z" fill="#A6A6A6"/>
<path d="M10.2328 46.9498C9.86364 46.9498 9.50337 46.9451 9.13708 46.937C8.37827 46.9272 7.62124 46.8618 6.87219 46.7412C6.17374 46.6221 5.49713 46.4005 4.86468 46.0838C4.23802 45.7696 3.66647 45.3577 3.1719 44.8638C2.67017 44.3758 2.25246 43.8097 1.93532 43.188C1.61468 42.5624 1.39279 41.8917 1.27735 41.1994C1.1527 40.4555 1.08525 39.7034 1.0756 38.9494C1.06792 38.6963 1.05786 37.8537 1.05786 37.8537V10.133C1.05786 10.133 1.06857 9.30332 1.07566 9.05956C1.0849 8.30678 1.15195 7.55579 1.27624 6.81308C1.39188 6.11891 1.61395 5.4463 1.93476 4.81856C2.25074 4.19734 2.66613 3.63084 3.16483 3.14102C3.66298 2.64655 4.23636 2.23253 4.86408 1.91406C5.49508 1.59832 6.17042 1.37828 6.86745 1.26133C7.61896 1.13961 8.37862 1.0738 9.14006 1.06446L10.2334 1.0498H134.761L135.867 1.06504C136.622 1.07392 137.374 1.13914 138.119 1.26015C138.823 1.37857 139.505 1.60014 140.144 1.91757C141.401 2.55939 142.424 3.5748 143.07 4.82149C143.386 5.4449 143.604 6.11201 143.718 6.80019C143.844 7.54899 143.915 8.30589 143.929 9.06485C143.933 9.40469 143.933 9.76972 143.933 10.133C143.942 10.583 143.942 11.0113 143.942 11.4432V36.5576C143.942 36.9935 143.942 37.4189 143.933 37.8478C143.933 38.238 143.933 38.5955 143.928 38.9634C143.914 39.7089 143.845 40.4522 143.721 41.1876C143.608 41.8849 143.387 42.5608 143.066 43.1916C142.747 43.8065 142.332 44.3677 141.836 44.8545C141.341 45.351 140.768 45.7653 140.14 46.0815C139.504 46.4007 138.822 46.6231 138.119 46.7412C137.37 46.8624 136.613 46.9278 135.854 46.937C135.499 46.9451 135.127 46.9498 134.767 46.9498L133.453 46.9522L10.2328 46.9498Z" fill="black"/>
<path d="M30.013 24.3608C30.0261 23.3592 30.2947 22.3771 30.794 21.506C31.2932 20.6348 32.0069 19.9029 32.8685 19.3783C32.3212 18.6041 31.599 17.967 30.7595 17.5175C29.92 17.0681 28.9862 16.8187 28.0324 16.7891C25.9976 16.5776 24.025 17.9949 22.9881 17.9949C21.9311 17.9949 20.3347 16.8101 18.6156 16.8451C17.5036 16.8807 16.4199 17.2009 15.47 17.7746C14.5202 18.3483 13.7366 19.1558 13.1956 20.1186C10.8521 24.1367 12.6001 30.0419 14.845 33.2899C15.9682 34.8803 17.2808 36.6568 18.9984 36.5938C20.6791 36.5248 21.3068 35.5324 23.3356 35.5324C25.3456 35.5324 25.9345 36.5938 27.6869 36.5538C29.4904 36.5248 30.6267 34.9563 31.7105 33.3508C32.5174 32.2176 33.1384 30.9651 33.5504 29.6398C32.5026 29.2009 31.6084 28.4663 30.9794 27.5275C30.3503 26.5888 30.0143 25.4874 30.013 24.3608Z" fill="white"/>
<path d="M26.703 14.6526C27.6863 13.4836 28.1708 11.9809 28.0535 10.4639C26.5511 10.6201 25.1634 11.3312 24.1668 12.4554C23.6795 13.0046 23.3063 13.6435 23.0685 14.3356C22.8307 15.0278 22.733 15.7595 22.7809 16.4891C23.5323 16.4967 24.2757 16.3354 24.9551 16.0173C25.6345 15.6992 26.2321 15.2326 26.703 14.6526Z" fill="white"/>
<path d="M51.2586 32.5662H45.5231L44.1457 36.594H41.7163L47.149 21.6924H49.673L55.1056 36.594H52.6348L51.2586 32.5662ZM46.1171 30.7076H50.6635L48.4223 24.1709H48.3595L46.1171 30.7076Z" fill="white"/>
<path d="M66.8384 31.1628C66.8384 34.5389 65.0137 36.7081 62.2601 36.7081C61.5626 36.7442 60.8689 36.5851 60.2584 36.2489C59.648 35.9127 59.1454 35.4131 58.8084 34.8073H58.7563V40.1885H56.5044V25.7299H58.6841V27.537H58.7255C59.0781 26.934 59.5891 26.437 60.2042 26.0988C60.8193 25.7606 61.5155 25.5938 62.2187 25.6163C65.003 25.6163 66.8384 27.796 66.8384 31.1628ZM64.5238 31.1628C64.5238 28.9632 63.376 27.517 61.6247 27.517C59.9041 27.517 58.7468 28.9936 58.7468 31.1628C58.7468 33.3518 59.9041 34.8178 61.6247 34.8178C63.376 34.8178 64.5238 33.3823 64.5238 31.1628Z" fill="white"/>
<path d="M78.9129 31.1627C78.9129 34.5389 77.0882 36.7081 74.3346 36.7081C73.6371 36.7442 72.9433 36.5851 72.3329 36.2489C71.7224 35.9127 71.2199 35.4131 70.8828 34.8073H70.8307V40.1885H68.5789V25.7299H70.7585V27.537H70.8C71.1525 26.934 71.6635 26.437 72.2786 26.0988C72.8938 25.7605 73.5899 25.5938 74.2931 25.6163C77.0775 25.6163 78.9129 27.7959 78.9129 31.1627ZM76.5983 31.1627C76.5983 28.9631 75.4505 27.517 73.6991 27.517C71.9786 27.517 70.8213 28.9936 70.8213 31.1627C70.8213 33.3518 71.9786 34.8178 73.6991 34.8178C75.4505 34.8178 76.5983 33.3823 76.5983 31.1627Z" fill="white"/>
<path d="M86.8933 32.4424C87.0601 33.9202 88.5097 34.8904 90.4906 34.8904C92.3887 34.8904 93.7542 33.9201 93.7542 32.5877C93.7542 31.4311 92.9306 30.7385 90.9805 30.2639L89.0304 29.7986C86.2673 29.1377 84.9846 27.858 84.9846 25.7814C84.9846 23.2104 87.2471 21.4443 90.4598 21.4443C93.6394 21.4443 95.8191 23.2104 95.8925 25.7814H93.6193C93.4832 24.2943 92.2419 23.3967 90.4279 23.3967C88.6138 23.3967 87.3725 24.3049 87.3725 25.6268C87.3725 26.6803 88.1653 27.3002 90.1048 27.7748L91.7626 28.1779C94.8499 28.9009 96.1327 30.1291 96.1327 32.3088C96.1327 35.0966 93.8903 36.8427 90.3237 36.8427C86.9867 36.8427 84.7337 35.1377 84.5881 32.4423L86.8933 32.4424Z" fill="white"/>
<path d="M100.993 23.1592V25.7303H103.079V27.4963H100.993V33.4857C100.993 34.4162 101.41 34.8498 102.327 34.8498C102.575 34.8455 102.822 34.8283 103.068 34.7982V36.5537C102.656 36.63 102.237 36.6645 101.817 36.6568C99.5963 36.6568 98.7301 35.8306 98.7301 33.7236V27.4963H97.135V25.7303H98.7301V23.1592H100.993Z" fill="white"/>
<path d="M104.287 31.1631C104.287 27.7447 106.32 25.5967 109.49 25.5967C112.671 25.5967 114.694 27.7447 114.694 31.1631C114.694 34.5908 112.682 36.7295 109.49 36.7295C106.3 36.7295 104.287 34.5908 104.287 31.1631ZM112.4 31.1631C112.4 28.8182 111.315 27.4342 109.49 27.4342C107.665 27.4342 106.582 28.8287 106.582 31.1631C106.582 33.5174 107.665 34.8908 109.49 34.8908C111.315 34.8908 112.4 33.5174 112.4 31.1631Z" fill="white"/>
<path d="M116.551 25.7298H118.699V27.579H118.751C118.896 27.0015 119.238 26.4911 119.718 26.1336C120.199 25.7762 120.789 25.5934 121.39 25.6161C121.649 25.6152 121.908 25.6432 122.161 25.6994V27.7853C121.834 27.6862 121.492 27.6406 121.149 27.6505C120.822 27.6374 120.496 27.6945 120.193 27.818C119.891 27.9414 119.618 28.1283 119.396 28.3658C119.173 28.6033 119.004 28.8857 118.902 29.1937C118.8 29.5017 118.766 29.828 118.803 30.1501V36.5943H116.551L116.551 25.7298Z" fill="white"/>
<path d="M132.544 33.4037C132.241 35.376 130.301 36.7295 127.82 36.7295C124.628 36.7295 122.647 34.6119 122.647 31.2146C122.647 27.8068 124.639 25.5967 127.725 25.5967C130.76 25.5967 132.669 27.6615 132.669 30.9557V31.7197H124.921V31.8545C124.885 32.2543 124.935 32.6571 125.069 33.0361C125.202 33.4151 125.416 33.7617 125.695 34.0527C125.974 34.3438 126.313 34.5727 126.688 34.7243C127.063 34.8758 127.467 34.9466 127.872 34.9318C128.404 34.9812 128.938 34.8592 129.394 34.5838C129.851 34.3085 130.205 33.8946 130.405 33.4037L132.544 33.4037ZM124.931 30.1611H130.416C130.436 29.8016 130.381 29.4418 130.254 29.1044C130.127 28.7669 129.932 28.4591 129.679 28.2002C129.426 27.9413 129.122 27.7369 128.786 27.5998C128.45 27.4627 128.089 27.396 127.725 27.4037C127.358 27.4015 126.995 27.4713 126.656 27.609C126.316 27.7467 126.008 27.9496 125.748 28.2059C125.488 28.4623 125.282 28.7671 125.142 29.1026C125.002 29.4382 124.93 29.798 124.931 30.1611Z" fill="white"/>
<path d="M45.835 10.4769C46.3071 10.4433 46.7808 10.514 47.222 10.6837C47.6632 10.8534 48.0609 11.118 48.3864 11.4583C48.7118 11.7987 48.9569 12.2063 49.104 12.6518C49.2511 13.0974 49.2966 13.5697 49.237 14.0347C49.237 16.3222 47.9886 17.6371 45.835 17.6371H43.2234V10.4769H45.835ZM44.3464 16.6245H45.7095C46.0469 16.6444 46.3845 16.5897 46.6978 16.4641C47.0111 16.3386 47.2921 16.1455 47.5205 15.8988C47.7489 15.6521 47.9189 15.3581 48.0181 15.0381C48.1173 14.7182 48.1432 14.3804 48.0939 14.0493C48.1396 13.7195 48.1111 13.3837 48.0104 13.0662C47.9097 12.7486 47.7393 12.457 47.5114 12.2122C47.2835 11.9675 47.0038 11.7757 46.6923 11.6507C46.3808 11.5256 46.0452 11.4703 45.7095 11.4887H44.3464V16.6245Z" fill="white"/>
<path d="M50.5056 14.9326C50.4713 14.5775 50.5123 14.2192 50.626 13.8807C50.7397 13.5422 50.9236 13.231 51.1659 12.967C51.4082 12.703 51.7035 12.4921 52.0329 12.3478C52.3623 12.2035 52.7185 12.1289 53.0787 12.1289C53.4389 12.1289 53.7952 12.2035 54.1246 12.3478C54.454 12.4921 54.7493 12.703 54.9916 12.967C55.2338 13.231 55.4177 13.5422 55.5314 13.8807C55.6451 14.2192 55.6862 14.5775 55.6519 14.9326C55.6868 15.288 55.6463 15.6468 55.5329 15.9858C55.4195 16.3249 55.2357 16.6366 54.9934 16.9011C54.751 17.1656 54.4555 17.377 54.1257 17.5216C53.796 17.6663 53.4394 17.741 53.0787 17.741C52.7181 17.741 52.3614 17.6663 52.0317 17.5216C51.702 17.377 51.4064 17.1656 51.1641 16.9011C50.9218 16.6366 50.738 16.3249 50.6246 15.9858C50.5112 15.6468 50.4706 15.288 50.5056 14.9326ZM54.5443 14.9326C54.5443 13.7613 54.0129 13.0763 53.0805 13.0763C52.1445 13.0763 51.6179 13.7613 51.6179 14.9326C51.6179 16.1132 52.1445 16.7929 53.0805 16.7929C54.013 16.7929 54.5443 16.1085 54.5443 14.9326Z" fill="white"/>
<path d="M62.4926 17.6369H61.3755L60.2478 13.6572H60.1626L59.0396 17.6369H57.9332L56.4292 12.2334H57.5214L58.4988 16.3566H58.5793L59.7011 12.2334H60.7341L61.8559 16.3566H61.9411L62.9138 12.2334H63.9906L62.4926 17.6369Z" fill="white"/>
<path d="M65.2556 12.2336H66.2922V13.092H66.3727C66.5092 12.7837 66.7394 12.5253 67.0313 12.3527C67.3232 12.1802 67.6621 12.1021 68.0009 12.1293C68.2664 12.1096 68.533 12.1492 68.7809 12.2453C69.0288 12.3414 69.2517 12.4916 69.4331 12.6846C69.6145 12.8776 69.7497 13.1086 69.8287 13.3603C69.9077 13.6121 69.9285 13.8783 69.8895 14.1391V17.6371H68.8127V14.4069C68.8127 13.5385 68.4317 13.1067 67.6353 13.1067C67.455 13.0984 67.2751 13.1288 67.1078 13.1958C66.9405 13.2628 66.7898 13.3648 66.6661 13.4948C66.5423 13.6249 66.4485 13.7799 66.3909 13.9493C66.3333 14.1186 66.3133 14.2983 66.3324 14.476V17.6372H65.2556L65.2556 12.2336Z" fill="white"/>
<path d="M71.6055 10.124H72.6823V17.6369H71.6055V10.124Z" fill="white"/>
<path d="M74.1791 14.9327C74.1449 14.5775 74.1859 14.2192 74.2996 13.8807C74.4134 13.5422 74.5973 13.231 74.8396 12.967C75.0819 12.7031 75.3772 12.4921 75.7067 12.3478C76.0361 12.2035 76.3923 12.1289 76.7526 12.1289C77.1128 12.1289 77.4691 12.2035 77.7985 12.3478C78.1279 12.4921 78.4233 12.7031 78.6656 12.967C78.9079 13.231 79.0918 13.5422 79.2055 13.8807C79.3192 14.2192 79.3603 14.5775 79.326 14.9327C79.3609 15.2881 79.3204 15.6469 79.2069 15.986C79.0935 16.325 78.9097 16.6368 78.6673 16.9012C78.4249 17.1657 78.1294 17.3771 77.7996 17.5217C77.4699 17.6664 77.1132 17.7411 76.7526 17.7411C76.3919 17.7411 76.0353 17.6664 75.7055 17.5217C75.3758 17.3771 75.0802 17.1657 74.8378 16.9012C74.5955 16.6368 74.4117 16.325 74.2982 15.986C74.1848 15.6469 74.1442 15.2881 74.1791 14.9327ZM78.2178 14.9327C78.2178 13.7614 77.6865 13.0764 76.7541 13.0764C75.818 13.0764 75.2915 13.7614 75.2915 14.9327C75.2915 16.1133 75.8181 16.793 76.7541 16.793C77.6865 16.793 78.2178 16.1086 78.2178 14.9327Z" fill="white"/>
<path d="M80.4597 16.1086C80.4597 15.1359 81.191 14.5752 82.4891 14.4955L83.9671 14.4111V13.9447C83.9671 13.374 83.5861 13.0518 82.85 13.0518C82.2489 13.0518 81.8324 13.2703 81.7129 13.6523H80.6703C80.7804 12.7242 81.662 12.1289 82.8997 12.1289C84.2677 12.1289 85.0392 12.8033 85.0392 13.9447V17.6367H84.0026V16.8773H83.9174C83.7445 17.1497 83.5016 17.3718 83.2137 17.5208C82.9258 17.6699 82.603 17.7406 82.2785 17.7257C82.0494 17.7493 81.8179 17.7251 81.5989 17.6547C81.3799 17.5843 81.1782 17.4691 81.0068 17.3168C80.8354 17.1644 80.6982 16.9782 80.604 16.7701C80.5098 16.562 80.4606 16.3366 80.4597 16.1086ZM83.9671 15.6469V15.1951L82.6347 15.2795C81.8833 15.3293 81.5425 15.5824 81.5425 16.0588C81.5425 16.5451 81.9684 16.8281 82.5542 16.8281C82.7259 16.8453 82.8992 16.8282 83.0641 16.7776C83.2289 16.7271 83.3817 16.6443 83.5135 16.5341C83.6453 16.4239 83.7534 16.2885 83.8314 16.1361C83.9093 15.9837 83.9554 15.8173 83.9671 15.6469Z" fill="white"/>
<path d="M86.4543 14.9328C86.4543 13.2254 87.3407 12.1438 88.7192 12.1438C89.0602 12.1282 89.3987 12.2091 89.695 12.377C89.9913 12.5448 90.2332 12.7928 90.3925 13.0918H90.4729V10.124H91.5497V17.6369H90.5179V16.7832H90.4327C90.2611 17.0802 90.0107 17.325 89.7087 17.4912C89.4067 17.6574 89.0645 17.7386 88.7192 17.726C87.3312 17.726 86.4543 16.6444 86.4543 14.9328ZM87.5667 14.9328C87.5667 16.0789 88.1122 16.7686 89.0246 16.7686C89.9322 16.7686 90.4931 16.069 90.4931 14.9375C90.4931 13.8113 89.9263 13.1018 89.0246 13.1018C88.1181 13.1018 87.5667 13.7961 87.5667 14.9328Z" fill="white"/>
<path d="M96.0051 14.9326C95.9708 14.5775 96.0118 14.2192 96.1255 13.8807C96.2392 13.5422 96.4231 13.231 96.6654 12.967C96.9077 12.703 97.203 12.4921 97.5324 12.3478C97.8618 12.2035 98.218 12.1289 98.5782 12.1289C98.9384 12.1289 99.2947 12.2035 99.6241 12.3478C99.9535 12.4921 100.249 12.703 100.491 12.967C100.733 13.231 100.917 13.5422 101.031 13.8807C101.145 14.2192 101.186 14.5775 101.151 14.9326C101.186 15.288 101.146 15.6468 101.032 15.9858C100.919 16.3249 100.735 16.6366 100.493 16.9011C100.251 17.1656 99.955 17.377 99.6253 17.5216C99.2955 17.6663 98.9389 17.741 98.5782 17.741C98.2176 17.741 97.8609 17.6663 97.5312 17.5216C97.2015 17.377 96.9059 17.1656 96.6636 16.9011C96.4213 16.6366 96.2375 16.3249 96.1241 15.9858C96.0107 15.6468 95.9701 15.288 96.0051 14.9326ZM100.044 14.9326C100.044 13.7613 99.5125 13.0763 98.58 13.0763C97.644 13.0763 97.1175 13.7613 97.1175 14.9326C97.1175 16.1132 97.644 16.7929 98.58 16.7929C99.5125 16.7929 100.044 16.1085 100.044 14.9326Z" fill="white"/>
<path d="M102.596 12.2336H103.633V13.092H103.713C103.85 12.7837 104.08 12.5253 104.372 12.3527C104.664 12.1802 105.003 12.1021 105.342 12.1293C105.607 12.1096 105.874 12.1492 106.121 12.2453C106.369 12.3414 106.592 12.4916 106.774 12.6846C106.955 12.8776 107.09 13.1086 107.169 13.3603C107.248 13.6121 107.269 13.8783 107.23 14.1391V17.6371H106.153V14.4069C106.153 13.5385 105.772 13.1067 104.976 13.1067C104.796 13.0984 104.616 13.1288 104.448 13.1958C104.281 13.2628 104.13 13.3648 104.007 13.4948C103.883 13.6249 103.789 13.7799 103.731 13.9493C103.674 14.1186 103.654 14.2983 103.673 14.476V17.6372H102.596V12.2336Z" fill="white"/>
<path d="M113.315 10.8877V12.2576H114.497V13.1559H113.315V15.9344C113.315 16.5004 113.55 16.7482 114.086 16.7482C114.224 16.7478 114.361 16.7396 114.497 16.7236V17.6119C114.304 17.6462 114.108 17.6644 113.911 17.6664C112.714 17.6664 112.237 17.2492 112.237 16.2074V13.1558H111.371V12.2576H112.237V10.8877H113.315Z" fill="white"/>
<path d="M115.968 10.124H117.035V13.1018H117.12C117.263 12.7906 117.5 12.5307 117.798 12.3575C118.095 12.1842 118.44 12.1061 118.784 12.1338C119.048 12.1196 119.312 12.1632 119.557 12.2617C119.802 12.3601 120.023 12.5109 120.202 12.7033C120.381 12.8957 120.516 13.125 120.596 13.3748C120.675 13.6245 120.698 13.8886 120.663 14.1482V17.6369H119.585V14.4113C119.585 13.5482 119.179 13.1111 118.418 13.1111C118.233 13.0961 118.047 13.1213 117.873 13.185C117.699 13.2486 117.541 13.3492 117.41 13.4797C117.279 13.6102 117.179 13.7674 117.115 13.9404C117.052 14.1133 117.028 14.2979 117.045 14.481V17.6369H115.968L115.968 10.124Z" fill="white"/>
<path d="M126.942 16.1778C126.796 16.6717 126.479 17.0988 126.046 17.3846C125.614 17.6704 125.094 17.7966 124.578 17.7411C124.218 17.7505 123.861 17.6823 123.531 17.5413C123.201 17.4002 122.905 17.1897 122.666 16.9244C122.426 16.659 122.247 16.3451 122.142 16.0046C122.037 15.664 122.008 15.3048 122.057 14.952C122.009 14.5982 122.039 14.2383 122.144 13.8967C122.248 13.5551 122.426 13.2397 122.665 12.972C122.903 12.7044 123.197 12.4905 123.526 12.3451C123.855 12.1996 124.212 12.126 124.573 12.129C126.091 12.129 127.007 13.1562 127.007 14.853V15.2251H123.154V15.2849C123.137 15.4832 123.162 15.6828 123.228 15.8709C123.294 16.059 123.398 16.2314 123.535 16.3772C123.672 16.5229 123.838 16.6387 124.023 16.7172C124.207 16.7957 124.406 16.8351 124.607 16.8329C124.865 16.8635 125.126 16.8176 125.357 16.7009C125.588 16.5843 125.779 16.4022 125.905 16.1778L126.942 16.1778ZM123.154 14.4364H125.91C125.924 14.2551 125.899 14.0729 125.837 13.9016C125.775 13.7304 125.678 13.5738 125.552 13.442C125.425 13.3101 125.272 13.206 125.103 13.1362C124.933 13.0664 124.751 13.0324 124.567 13.0366C124.381 13.0343 124.196 13.0689 124.023 13.1385C123.851 13.208 123.694 13.311 123.563 13.4415C123.431 13.5719 123.327 13.7272 123.257 13.8981C123.187 14.0689 123.152 14.252 123.154 14.4364Z" fill="white"/>
</g>
<defs>
<clipPath id="clip0_4070_4750">
<rect width="145" height="48" fill="white"/>
</clipPath>
</defs>
</svg>
